<?xml version="1.0" encoding="UTF-8"?>
<svg version="1.1" xmlns="http://www.w3.org/2000/svg" width="300" height="300">
<path d="M0 0 C2.47880078 2.36076265 3.16856021 3.59422822 4.5625 6.5625 C6.40354579 9.81461049 7.44682963 10.4386527 11.0625 11.68359375 C21.01332245 14.21938107 21.01332245 14.21938107 30.609375 12.40625 C31.19203125 11.9421875 31.7746875 11.478125 32.375 11 C37.01901289 7.86239436 41.15788002 7.63130391 46.625 8.5 C50.36899713 10.12782484 52.9716249 12.41331163 55.625 15.5 C56.3203125 18.26953125 56.3203125 18.26953125 56.75 21.3125 C57.87072951 26.44656817 59.21882245 28.58615872 63.5625 31.5625 C65.2408104 32.55733557 66.92792677 33.53752087 68.625 34.5 C69.20636719 35.056875 69.78773438 35.61375 70.38671875 36.1875 C74.47058437 38.58222748 79.29567992 37.56875234 83.89453125 37.29492188 C89.34055601 37.10915897 92.3324563 37.78681803 96.625 41.5 C99.92018467 47.32149292 100.44770377 52.24098024 98.81640625 58.703125 C98.55342143 63.91988514 100.37881751 66.5738167 103.3125 70.75 C103.80709717 71.46728271 104.30169434 72.18456543 104.8112793 72.92358398 C108.05837349 77.28140552 110.41619919 79.49006688 115.9375 80.5625 C116.92878906 80.69914062 117.92007812 80.83578125 118.94140625 80.9765625 C122.72298256 81.71416254 124.48084347 83.18515021 126.69140625 86.28125 C128.65332448 90.94388411 128.54431785 95.58821607 127.625 100.5 C126.47180613 102.69875631 125.13837885 104.58281729 123.68359375 106.58984375 C121.66193257 110.23778587 122.74296212 113.60686727 123.625 117.5 C123.78097656 118.510625 123.93695313 119.52125 124.09765625 120.5625 C125.08903149 126.49906933 125.08903149 126.49906933 128.49609375 131.234375 C130.57378647 132.52214479 130.57378647 132.52214479 132.6875 133.4375 C135.18449187 134.80681812 136.21986677 136.0185945 137.625 138.5 C138.48140012 143.57865189 138.84437324 149.0696341 136.48828125 153.765625 C134.09197565 156.65880236 131.83854298 158.38136501 128.53125 160.21875 C124.73042628 163.20219227 124.50566576 165.23091509 123.75 169.9375 C123.41355469 171.88462891 123.41355469 171.88462891 123.0703125 173.87109375 C122.5132537 178.18468682 122.5132537 178.18468682 122.625 182.5 C123.45 183.49 124.275 184.48 125.125 185.5 C128.46538235 189.82060851 128.18512926 194.1288369 128.19140625 199.4140625 C127.3566124 203.96224966 124.99471075 206.37200291 121.5 209.25 C117.32070689 211.06708396 113.14086348 211.24570866 108.625 211.5 C108.38136719 212.20253906 108.13773437 212.90507812 107.88671875 213.62890625 C105.96252324 218.00749355 103.03464899 221.62700882 100.20703125 225.46484375 C98.30269217 229.11835354 98.59877105 230.5918224 99.625 234.5 C100.14458795 239.93568934 99.71851022 243.80639829 96.625 248.5 C92.06330763 252.71956544 88.8668042 253.63982378 82.67578125 253.6171875 C80.625 253.5 80.625 253.5 77.5 252.75 C74.21474458 252.46432562 72.96065167 253.15048477 70.40234375 255.15234375 C68.625 256.5 68.625 256.5 66.12890625 257.94140625 C60.78413705 261.10696436 60.78413705 261.10696436 57.4921875 266.1875 C57.04313177 268.08695414 56.6232183 269.99356132 56.234375 271.90625 C55.24628456 276.11196828 53.97502876 277.7201889 50.625 280.5 C44.67364112 282.75323095 39.55169401 283.0566131 33.625 280.5 C32.4184375 279.4171875 32.4184375 279.4171875 31.1875 278.3125 C28.67171821 276.15375194 28.67171821 276.15375194 25.125 276.5625 C23.62200005 276.86023713 22.12238653 277.17520803 20.625 277.5 C19.55894531 277.6546875 18.49289063 277.809375 17.39453125 277.96875 C11.00654282 278.89773102 11.00654282 278.89773102 5.8203125 282.37109375 C4.63733145 284.37334429 3.63789924 286.40871234 2.625 288.5 C-0.98257567 291.88893472 -3.90363082 292.39100969 -8.75 292.75 C-13.47262054 292.42430203 -16.6621324 291.44726001 -19.859375 287.8125 C-23.375 283.07233146 -23.375 283.07233146 -23.375 280.5 C-26.43397731 279.7961526 -29.49756069 279.11487171 -32.5625 278.4375 C-33.85897461 278.13875977 -33.85897461 278.13875977 -35.18164062 277.83398438 C-41.29390656 276.41729797 -41.29390656 276.41729797 -47.375 277.5 C-48.1175 278.16 -48.86 278.82 -49.625 279.5 C-53.41093833 282.2534097 -56.75516004 282.58162261 -61.375 282.5 C-65.32812801 281.60495215 -68.58557548 280.48179862 -71.375 277.5 C-73.16517579 273.44013704 -74.26904248 269.47127726 -74.75 265.0625 C-74.95625 264.216875 -75.1625 263.37125 -75.375 262.5 C-77.03285779 261.81171969 -78.70174103 261.14994357 -80.375 260.5 C-83.4485142 258.42783019 -86.44129885 256.26421347 -89.4375 254.08203125 C-92.19965363 252.24403689 -92.19965363 252.24403689 -94.94140625 252.7421875 C-95.74449219 252.99226562 -96.54757813 253.24234375 -97.375 253.5 C-102.42672368 253.98835998 -106.22511798 254.08539448 -110.8125 251.75 C-114.87333887 248.18438538 -114.87333887 248.18438538 -116.375 245.5 C-116.40949403 242.73472829 -116.3184887 240.12163955 -116.125 237.375 C-115.80188881 229.04315748 -117.84969341 224.79435354 -123.375 218.5 C-124.13876953 217.19289062 -124.13876953 217.19289062 -124.91796875 215.859375 C-126.30619843 213.24507674 -126.30619843 213.24507674 -129.375 211.5 C-130.82246609 211.15846306 -132.28315665 210.87030827 -133.75 210.625 C-137.87149434 209.76719305 -140.38115486 208.58456772 -143.375 205.5 C-146.25578036 200.81745949 -146.02942788 195.82781285 -145.375 190.5 C-144.17468398 187.69745219 -142.54060286 185.66560286 -140.375 183.5 C-140.46473413 180.14532411 -140.96625178 176.82837834 -141.375 173.5 C-141.44074219 172.55511719 -141.50648438 171.61023438 -141.57421875 170.63671875 C-142.02363677 166.41685864 -142.36597867 163.5323513 -145.40234375 160.42578125 C-146.99177055 159.23821925 -148.60522688 158.0820713 -150.2421875 156.9609375 C-153.0442723 155.04156073 -154.27084674 153.73884956 -155.375 150.5 C-156.17454857 145.67986431 -156.50735688 141.43801135 -153.98046875 137.11328125 C-151.45949811 134.14194113 -149.3099958 131.93688792 -145.75 130.2734375 C-142.84400546 128.10350079 -142.47504185 126.29737044 -141.86914062 122.79296875 C-141.76794922 122.07753906 -141.66675781 121.36210938 -141.5625 120.625 C-141.44197266 119.91730469 -141.32144531 119.20960937 -141.19726562 118.48046875 C-140.60016676 114.81598771 -140.03972405 111.20815206 -140.375 107.5 C-142.24697454 104.80566683 -142.24697454 104.80566683 -144.375 102.5 C-146.33499724 98.58000551 -145.72835683 93.7836767 -145.375 89.5 C-144.0625 86.5 -144.0625 86.5 -142.375 84.5 C-141.76398438 83.73816406 -141.76398438 83.73816406 -141.140625 82.9609375 C-138.71751394 80.95597392 -136.50893916 80.70967445 -133.4375 80.125 C-128.66355029 79.04566917 -128.66355029 79.04566917 -124.8125 76.125 C-124.338125 75.25875 -123.86375 74.3925 -123.375 73.5 C-122.88 72.695625 -122.385 71.89125 -121.875 71.0625 C-121.38 70.216875 -120.885 69.37125 -120.375 68.5 C-119.6325 67.675 -118.89 66.85 -118.125 66 C-115.75538121 61.26076243 -116.62372581 57.79096367 -117.1875 52.62890625 C-117.45458821 48.17187169 -116.79213913 46.24266703 -114.375 42.5 C-109.55741642 37.53209063 -109.55741642 37.53209063 -104.6328125 37.3984375 C-103.25450855 37.55110091 -101.8769105 37.71024148 -100.5 37.875 C-91.47586427 38.3952032 -85.46809017 35.31513988 -78.51953125 29.7265625 C-74.57245709 26.07058367 -73.47893411 22.39465353 -72.80078125 17.11328125 C-72.15219856 13.1325306 -70.57450895 11.81964399 -67.375 9.5 C-63.02028413 8.04842804 -58.92186998 7.84747209 -54.375 8.5 C-52.39070685 9.62824621 -50.87330679 10.8197023 -49.23828125 12.40625 C-43.76232419 15.62064827 -34.77633556 13.09992455 -28.84765625 11.75390625 C-23.41729129 9.7931108 -21.93302557 6.38846879 -19.375 1.5 C-14.26156201 -3.32124154 -6.0766097 -2.70071542 0 0 Z " fill="#333EB4" transform="translate(159.375,4.5)"/>
<path d="M0 0 C2.47880078 2.36076265 3.16856021 3.59422822 4.5625 6.5625 C6.40354579 9.81461049 7.44682963 10.4386527 11.0625 11.68359375 C21.01332245 14.21938107 21.01332245 14.21938107 30.609375 12.40625 C31.19203125 11.9421875 31.7746875 11.478125 32.375 11 C37.01901289 7.86239436 41.15788002 7.63130391 46.625 8.5 C50.36899713 10.12782484 52.9716249 12.41331163 55.625 15.5 C56.3203125 18.26953125 56.3203125 18.26953125 56.75 21.3125 C57.87072951 26.44656817 59.21882245 28.58615872 63.5625 31.5625 C65.2408104 32.55733557 66.92792677 33.53752087 68.625 34.5 C69.20636719 35.056875 69.78773438 35.61375 70.38671875 36.1875 C74.47058437 38.58222748 79.29567992 37.56875234 83.89453125 37.29492188 C89.34055601 37.10915897 92.3324563 37.78681803 96.625 41.5 C99.92018467 47.32149292 100.44770377 52.24098024 98.81640625 58.703125 C98.55342143 63.91988514 100.37881751 66.5738167 103.3125 70.75 C103.80709717 71.46728271 104.30169434 72.18456543 104.8112793 72.92358398 C108.05837349 77.28140552 110.41619919 79.49006688 115.9375 80.5625 C116.92878906 80.69914062 117.92007812 80.83578125 118.94140625 80.9765625 C122.72298256 81.71416254 124.48084347 83.18515021 126.69140625 86.28125 C128.65332448 90.94388411 128.54431785 95.58821607 127.625 100.5 C126.47180613 102.69875631 125.13837885 104.58281729 123.68359375 106.58984375 C121.66193257 110.23778587 122.74296212 113.60686727 123.625 117.5 C123.78097656 118.510625 123.93695313 119.52125 124.09765625 120.5625 C125.08903149 126.49906933 125.08903149 126.49906933 128.49609375 131.234375 C130.57378647 132.52214479 130.57378647 132.52214479 132.6875 133.4375 C135.18449187 134.80681812 136.21986677 136.0185945 137.625 138.5 C138.48140012 143.57865189 138.84437324 149.0696341 136.48828125 153.765625 C134.09197565 156.65880236 131.83854298 158.38136501 128.53125 160.21875 C124.73042628 163.20219227 124.50566576 165.23091509 123.75 169.9375 C123.41355469 171.88462891 123.41355469 171.88462891 123.0703125 173.87109375 C122.5132537 178.18468682 122.5132537 178.18468682 122.625 182.5 C123.45 183.49 124.275 184.48 125.125 185.5 C128.46538235 189.82060851 128.18512926 194.1288369 128.19140625 199.4140625 C127.3566124 203.96224966 124.99471075 206.37200291 121.5 209.25 C117.32070689 211.06708396 113.14086348 211.24570866 108.625 211.5 C108.38136719 212.20253906 108.13773437 212.90507812 107.88671875 213.62890625 C105.96252324 218.00749355 103.03464899 221.62700882 100.20703125 225.46484375 C98.30269217 229.11835354 98.59877105 230.5918224 99.625 234.5 C100.14458795 239.93568934 99.71851022 243.80639829 96.625 248.5 C92.06330763 252.71956544 88.8668042 253.63982378 82.67578125 253.6171875 C80.625 253.5 80.625 253.5 77.5 252.75 C74.21474458 252.46432562 72.96065167 253.15048477 70.40234375 255.15234375 C68.625 256.5 68.625 256.5 66.12890625 257.94140625 C60.78413705 261.10696436 60.78413705 261.10696436 57.4921875 266.1875 C57.04313177 268.08695414 56.6232183 269.99356132 56.234375 271.90625 C55.24628456 276.11196828 53.97502876 277.7201889 50.625 280.5 C44.67364112 282.75323095 39.55169401 283.0566131 33.625 280.5 C32.4184375 279.4171875 32.4184375 279.4171875 31.1875 278.3125 C28.67171821 276.15375194 28.67171821 276.15375194 25.125 276.5625 C23.62200005 276.86023713 22.12238653 277.17520803 20.625 277.5 C19.55894531 277.6546875 18.49289063 277.809375 17.39453125 277.96875 C11.00654282 278.89773102 11.00654282 278.89773102 5.8203125 282.37109375 C4.63733145 284.37334429 3.63789924 286.40871234 2.625 288.5 C-0.98257567 291.88893472 -3.90363082 292.39100969 -8.75 292.75 C-13.47262054 292.42430203 -16.6621324 291.44726001 -19.859375 287.8125 C-23.375 283.07233146 -23.375 283.07233146 -23.375 280.5 C-26.43397731 279.7961526 -29.49756069 279.11487171 -32.5625 278.4375 C-33.85897461 278.13875977 -33.85897461 278.13875977 -35.18164062 277.83398438 C-41.29390656 276.41729797 -41.29390656 276.41729797 -47.375 277.5 C-48.1175 278.16 -48.86 278.82 -49.625 279.5 C-53.41093833 282.2534097 -56.75516004 282.58162261 -61.375 282.5 C-65.32812801 281.60495215 -68.58557548 280.48179862 -71.375 277.5 C-73.16517579 273.44013704 -74.26904248 269.47127726 -74.75 265.0625 C-74.95625 264.216875 -75.1625 263.37125 -75.375 262.5 C-77.03285779 261.81171969 -78.70174103 261.14994357 -80.375 260.5 C-83.4485142 258.42783019 -86.44129885 256.26421347 -89.4375 254.08203125 C-92.19965363 252.24403689 -92.19965363 252.24403689 -94.94140625 252.7421875 C-95.74449219 252.99226562 -96.54757813 253.24234375 -97.375 253.5 C-102.42672368 253.98835998 -106.22511798 254.08539448 -110.8125 251.75 C-114.87333887 248.18438538 -114.87333887 248.18438538 -116.375 245.5 C-116.40949403 242.73472829 -116.3184887 240.12163955 -116.125 237.375 C-115.80188881 229.04315748 -117.84969341 224.79435354 -123.375 218.5 C-124.13876953 217.19289062 -124.13876953 217.19289062 -124.91796875 215.859375 C-126.30619843 213.24507674 -126.30619843 213.24507674 -129.375 211.5 C-130.82246609 211.15846306 -132.28315665 210.87030827 -133.75 210.625 C-137.87149434 209.76719305 -140.38115486 208.58456772 -143.375 205.5 C-146.25578036 200.81745949 -146.02942788 195.82781285 -145.375 190.5 C-144.17468398 187.69745219 -142.54060286 185.66560286 -140.375 183.5 C-140.46473413 180.14532411 -140.96625178 176.82837834 -141.375 173.5 C-141.44074219 172.55511719 -141.50648438 171.61023438 -141.57421875 170.63671875 C-142.02363677 166.41685864 -142.36597867 163.5323513 -145.40234375 160.42578125 C-146.99177055 159.23821925 -148.60522688 158.0820713 -150.2421875 156.9609375 C-153.0442723 155.04156073 -154.27084674 153.73884956 -155.375 150.5 C-156.17454857 145.67986431 -156.50735688 141.43801135 -153.98046875 137.11328125 C-151.45949811 134.14194113 -149.3099958 131.93688792 -145.75 130.2734375 C-142.84400546 128.10350079 -142.47504185 126.29737044 -141.86914062 122.79296875 C-141.76794922 122.07753906 -141.66675781 121.36210938 -141.5625 120.625 C-141.44197266 119.91730469 -141.32144531 119.20960937 -141.19726562 118.48046875 C-140.60016676 114.81598771 -140.03972405 111.20815206 -140.375 107.5 C-142.24697454 104.80566683 -142.24697454 104.80566683 -144.375 102.5 C-146.33499724 98.58000551 -145.72835683 93.7836767 -145.375 89.5 C-144.0625 86.5 -144.0625 86.5 -142.375 84.5 C-141.76398438 83.73816406 -141.76398438 83.73816406 -141.140625 82.9609375 C-138.71751394 80.95597392 -136.50893916 80.70967445 -133.4375 80.125 C-128.66355029 79.04566917 -128.66355029 79.04566917 -124.8125 76.125 C-124.338125 75.25875 -123.86375 74.3925 -123.375 73.5 C-122.88 72.695625 -122.385 71.89125 -121.875 71.0625 C-121.38 70.216875 -120.885 69.37125 -120.375 68.5 C-119.6325 67.675 -118.89 66.85 -118.125 66 C-115.75538121 61.26076243 -116.62372581 57.79096367 -117.1875 52.62890625 C-117.45458821 48.17187169 -116.79213913 46.24266703 -114.375 42.5 C-109.55741642 37.53209063 -109.55741642 37.53209063 -104.6328125 37.3984375 C-103.25450855 37.55110091 -101.8769105 37.71024148 -100.5 37.875 C-91.47586427 38.3952032 -85.46809017 35.31513988 -78.51953125 29.7265625 C-74.57245709 26.07058367 -73.47893411 22.39465353 -72.80078125 17.11328125 C-72.15219856 13.1325306 -70.57450895 11.81964399 -67.375 9.5 C-63.02028413 8.04842804 -58.92186998 7.84747209 -54.375 8.5 C-52.39070685 9.62824621 -50.87330679 10.8197023 -49.23828125 12.40625 C-43.76232419 15.62064827 -34.77633556 13.09992455 -28.84765625 11.75390625 C-23.41729129 9.7931108 -21.93302557 6.38846879 -19.375 1.5 C-14.26156201 -3.32124154 -6.0766097 -2.70071542 0 0 Z M-9.375 15.5 C-11.71787418 18.17247634 -11.71787418 18.17247634 -12.375 21.5 C-13.2825 21.768125 -14.19 22.03625 -15.125 22.3125 C-18.29936312 23.26195668 -18.29936312 23.26195668 -20.16015625 25.00390625 C-23.09928924 26.98924652 -25.55472651 27.20051696 -29.0625 27.625 C-30.92841797 27.85509766 -30.92841797 27.85509766 -32.83203125 28.08984375 C-34.58580078 28.29287109 -34.58580078 28.29287109 -36.375 28.5 C-37.24511719 28.62503906 -38.11523438 28.75007813 -39.01171875 28.87890625 C-45.97413743 29.83882087 -51.82945088 29.26493023 -58.375 26.5 C-58.66890625 27.2734375 -58.9628125 28.046875 -59.265625 28.84375 C-63.16932764 37.90751935 -67.9984967 41.62783681 -76.375 46.5 C-77.63823957 47.44081271 -78.89092207 48.39624853 -80.125 49.375 C-86.54708918 53.57405831 -92.85947553 53.81314685 -100.375 53.5 C-100.313125 54.799375 -100.25125 56.09875 -100.1875 57.4375 C-100.31345292 69.043162 -106.83705396 77.40529293 -113.375 86.5 C-114.02082031 87.42683594 -114.66664062 88.35367188 -115.33203125 89.30859375 C-117.77250139 91.92638294 -119.73870647 92.72404851 -123.125 93.8125 C-124.10984375 94.13863281 -125.0946875 94.46476562 -126.109375 94.80078125 C-127.23085937 95.14689453 -127.23085937 95.14689453 -128.375 95.5 C-128.08625 96.04527344 -127.7975 96.59054688 -127.5 97.15234375 C-123.32921616 105.62424842 -123.69724033 111.57413444 -126.375 120.5 C-126.6826385 122.66445662 -126.97274151 124.8314425 -127.25 127 C-128.27676321 133.9326415 -129.75744123 138.17989109 -135.125 142.9375 C-135.8675 143.453125 -136.61 143.96875 -137.375 144.5 C-136.57941538 147.7669805 -136.57941538 147.7669805 -133.4375 149.9375 C-128.08589028 154.41537752 -127.55224123 159.60394709 -126.25 166.1875 C-125.97736328 167.47817383 -125.97736328 167.47817383 -125.69921875 168.79492188 C-122.69361006 183.78906749 -122.69361006 183.78906749 -126.375 189.9375 C-127.99075672 192.5460923 -127.99075672 192.5460923 -128.375 195.5 C-127.27091797 195.82871094 -127.27091797 195.82871094 -126.14453125 196.1640625 C-119.98294586 198.16637426 -115.90148077 199.91273203 -112.375 205.5 C-111.385 206.95986328 -111.385 206.95986328 -110.375 208.44921875 C-108.34828961 211.44947395 -106.35600619 214.46945411 -104.375 217.5 C-103.715 218.49 -103.055 219.48 -102.375 220.5 C-100.40659693 225.9677863 -100.14143943 230.77776599 -100.375 236.5 C-99.37082031 236.53996094 -98.36664063 236.57992187 -97.33203125 236.62109375 C-86.16779527 237.36208286 -80.04818683 240.49244576 -71.375 247.5 C-69.85583274 248.52331107 -68.3352505 249.54452867 -66.8125 250.5625 C-62.02697085 254.176887 -60.2223119 258.9580643 -58.375 264.5 C-57.67761719 264.18675781 -56.98023437 263.87351562 -56.26171875 263.55078125 C-45.63751021 259.68351184 -32.02854847 261.15241024 -21.375 264.5 C-16.28262012 267.08583122 -12.33222183 270.43113241 -8.375 274.5 C-7.88 273.778125 -7.385 273.05625 -6.875 272.3125 C0.49509044 264.02114826 9.98078478 262.53259251 20.625 261.5 C24.97499598 261.28764813 29.13073694 261.37643423 33.375 262.4375 C34.09171875 262.61152344 34.8084375 262.78554688 35.546875 262.96484375 C36.57554687 263.22974609 36.57554687 263.22974609 37.625 263.5 C38.37265625 263.68691406 39.1203125 263.87382812 39.890625 264.06640625 C40.46296875 264.20949219 41.0353125 264.35257813 41.625 264.5 C41.9653125 262.9840625 41.9653125 262.9840625 42.3125 261.4375 C44.76922379 253.18755592 49.67249272 249.42564998 56.94921875 245.13671875 C59.17525396 243.77510013 60.89068864 242.41662315 62.8125 240.6875 C68.14125341 236.67774496 76.21623272 237.01547108 82.625 236.5 C82.66496094 235.49582031 82.70492187 234.49164063 82.74609375 233.45703125 C83.48971858 222.29168285 86.6780082 216.20152215 93.625 207.5 C94.32753906 206.42492187 95.03007812 205.34984375 95.75390625 204.2421875 C97.78896915 201.25969449 99.44914783 200.12864214 102.625 198.5 C103.615 197.84 104.605 197.18 105.625 196.5 C107.28049531 196.11500109 108.9472433 195.77206865 110.625 195.5 C110.315625 194.654375 110.00625 193.80875 109.6875 192.9375 C108.61053267 189.45319392 108.11984328 186.10528672 107.625 182.5 C107.295 182.17 106.965 181.84 106.625 181.5 C106.89867493 178.81327732 107.23250289 176.16956183 107.625 173.5 C107.71442871 172.83629395 107.80385742 172.17258789 107.89599609 171.48876953 C109.42161197 160.53008172 112.07539708 152.06311028 120.625 144.5 C119.8825 143.96375 119.14 143.4275 118.375 142.875 C115.44363868 140.34336977 113.66191864 137.77361925 111.625 134.5 C111.295 134.17 110.965 133.84 110.625 133.5 C110.34256753 132.17508119 110.11197793 130.83897497 109.90625 129.5 C109.71482422 128.2934375 109.71482422 128.2934375 109.51953125 127.0625 C109.25651042 125.35416667 108.99348958 123.64583333 108.73046875 121.9375 C108.53904297 120.7309375 108.53904297 120.7309375 108.34375 119.5 C108.17262695 118.38625 108.17262695 118.38625 107.99804688 117.25 C107.78673285 115.4803505 107.78673285 115.4803505 106.625 114.5 C106.5 111.5 106.5 111.5 106.625 108.5 C106.955 108.17 107.285 107.84 107.625 107.5 C107.99460994 106.05043603 108.32159993 104.58985345 108.625 103.125 C109.17381592 100.49239863 109.77227462 98.05817615 110.625 95.5 C110.03332031 95.24605469 109.44164062 94.99210937 108.83203125 94.73046875 C107.64673828 94.21419922 107.64673828 94.21419922 106.4375 93.6875 C105.66019531 93.35105469 104.88289062 93.01460938 104.08203125 92.66796875 C99.21247684 90.35318851 96.2972059 88.63100046 93.6875 83.8125 C91.82387401 80.45123142 89.98396218 77.74324522 87.375 74.9375 C82.72195162 69.07855688 83.09776481 60.67298326 82.625 53.5 C81.325625 53.561875 80.02625 53.62375 78.6875 53.6875 C68.96318828 53.58196483 62.43899737 49.34008487 54.67724609 43.90478516 C51.46007305 41.37575707 51.46007305 41.37575707 47.625 40.5 C47.2228125 39.4171875 47.2228125 39.4171875 46.8125 38.3125 C45.63201062 35.51660409 44.21334346 33.08105812 42.625 30.5 C41.94403578 29.17391178 41.27169414 27.84313399 40.625 26.5 C39.55958984 26.96792969 39.55958984 26.96792969 38.47265625 27.4453125 C29.75640043 30.6735554 21.0821423 29.53572021 12.1875 27.8125 C11.33534912 27.65185059 10.48319824 27.49120117 9.60522461 27.32568359 C4.38798338 26.21979099 0.91202362 24.64735119 -3.375 21.5 C-4.035 21.5 -4.695 21.5 -5.375 21.5 C-5.808125 20.2934375 -5.808125 20.2934375 -6.25 19.0625 C-7.10762568 16.3673532 -7.10762568 16.3673532 -9.375 15.5 Z " fill="#F9F9FD" transform="translate(159.375,4.5)"/>
<path d="M0 0 C1.02609375 -0.02578125 2.0521875 -0.0515625 3.109375 -0.078125 C10.81382457 0.72681749 15.22321834 5.79124288 20.375 11.0625 C21.07753906 11.76181641 21.78007812 12.46113281 22.50390625 13.18164062 C28.67741568 19.41933588 33.35852399 24.57366804 33.4375 33.6875 C33.40778455 37.28901278 32.92675112 40.0012947 31.25 43.25 C32.24 42.92 33.23 42.59 34.25 42.25 C41.40100163 41.49726299 46.24554031 43.35202289 52.25 47.25 C54.83485057 49.38847075 57.03984434 51.73157204 59.25 54.25 C59.84683594 54.89195312 60.44367188 55.53390625 61.05859375 56.1953125 C70.68623578 66.75466182 70.68623578 66.75466182 71.875 74.125 C70.82117201 86.20889429 61.41687897 93.33661537 52.88818359 100.78295898 C51.21235787 102.24083623 51.21235787 102.24083623 49.66162109 103.9440918 C49.19578613 104.3750415 48.72995117 104.80599121 48.25 105.25 C45.62149429 105.11547018 44.50489816 104.47800524 42.546875 102.7265625 C42.03640625 102.11554688 41.5259375 101.50453125 41 100.875 C40.47921875 100.26914063 39.9584375 99.66328125 39.421875 99.0390625 C38.25 97.25 38.25 97.25 38.25 94.25 C39.71875 92.70703125 39.71875 92.70703125 41.75 91.0625 C45.61867422 87.8408994 49.11520464 84.39748437 52.5859375 80.75390625 C54.25 79.25 54.25 79.25 56.25 79.25 C56.80604969 76.07257321 56.77673799 74.0057545 54.90234375 71.31640625 C53.68803829 69.94731021 52.44544428 68.60292375 51.1796875 67.28125 C48.89513971 64.87646285 46.95216704 62.27578541 45 59.59765625 C41.96486032 57.2603277 40.0770153 57.07569262 36.25 57.25 C32.92539287 59.42475746 30.264295 62.16334126 27.5 65 C26.74589844 65.7425 25.99179688 66.485 25.21484375 67.25 C23.20758623 69.2323005 21.22527856 71.2359271 19.25 73.25 C18.67749512 73.7651416 18.10499023 74.2802832 17.51513672 74.81103516 C15.93706455 76.28758948 15.93706455 76.28758948 16.2421875 79.1015625 C17.51431558 83.07573007 19.32907291 84.79486066 22.375 87.625 C25.6611168 90.74636211 28.88198374 93.84788485 31.8125 97.3125 C34.48596826 100.44757429 37.31881809 103.35408042 40.25 106.25 C51.15030211 117.05060423 51.15030211 117.05060423 54.25 123.25 C51.61 125.89 48.97 128.53 46.25 131.25 C42.98803827 129.61901913 41.47101561 128.7206324 39.04296875 126.2734375 C38.4598291 125.68900879 37.87668945 125.10458008 37.27587891 124.50244141 C36.66921387 123.88288574 36.06254883 123.26333008 35.4375 122.625 C34.81020996 121.99126465 34.18291992 121.3575293 33.53662109 120.70458984 C29.82321076 116.92933765 26.24321365 113.08118195 22.8203125 109.0390625 C21.04534619 107.0168372 19.16700977 105.13785373 17.25 103.25 C2.5203727 88.72058123 2.5203727 88.72058123 2.08203125 81.47265625 C2.07236328 79.90837891 2.07236328 79.90837891 2.0625 78.3125 C2.04832031 77.27222656 2.03414062 76.23195313 2.01953125 75.16015625 C2.24607718 72.29953387 2.77266381 70.67329849 4.25 68.25 C3.2909375 68.745 3.2909375 68.745 2.3125 69.25 C-3.27597224 71.07480726 -7.79376648 71.19423281 -13.1328125 68.6171875 C-17.03524305 66.24969197 -20.10010171 63.27538089 -23.25 60 C-23.81678467 59.4222583 -24.38356934 58.8445166 -24.9675293 58.24926758 C-28.49094365 54.63277236 -31.87618778 50.92360106 -35.14453125 47.07421875 C-37.55660242 44.33349555 -40.17683372 41.81433135 -42.77734375 39.25390625 C-45.31750323 36.67350662 -47.65913107 33.9470227 -50.01953125 31.203125 C-52.78939812 28.07686443 -55.76483212 25.16866661 -58.75 22.25 C-59.75114745 21.25114876 -60.75150489 20.25150263 -61.75 19.25 C-60.36811547 16.03956118 -58.82578097 14.20063635 -56.125 12 C-55.49335937 11.47921875 -54.86171875 10.9584375 -54.2109375 10.421875 C-53.48777344 9.84179688 -53.48777344 9.84179688 -52.75 9.25 C-48.83790692 10.84415503 -46.37781914 13.38893332 -43.4375 16.375 C-42.53386719 17.28507812 -41.63023438 18.19515625 -40.69921875 19.1328125 C-37.89435848 22.04593723 -35.25447568 25.09068518 -32.60424805 28.14404297 C-29.42319958 31.75690987 -26.11738866 35.25070612 -22.8125 38.75 C-21.81573242 39.81154297 -21.81573242 39.81154297 -20.79882812 40.89453125 C-18.792836 43.02310097 -16.77427147 45.1388145 -14.75 47.25 C-13.67081299 48.38598633 -13.67081299 48.38598633 -12.56982422 49.54492188 C-11.86486816 50.27259766 -11.15991211 51.00027344 -10.43359375 51.75 C-9.7986499 52.41 -9.16370605 53.07 -8.50952148 53.75 C-6.74436328 55.51549969 -6.74436328 55.51549969 -3.75 55.75 C-0.02166557 53.88583279 2.32842533 51.47661629 5.16015625 48.44921875 C7.77689653 45.69552758 10.60223379 43.25752449 13.48828125 40.79296875 C14.06964844 40.28378906 14.65101563 39.77460938 15.25 39.25 C15.82105469 38.81300781 16.39210938 38.37601563 16.98046875 37.92578125 C18.49198333 36.20610792 18.49198333 36.20610792 18.69921875 33.34765625 C18.13350654 29.44670161 16.94531499 28.31636392 14.0625 25.6875 C12.83466797 24.54087891 12.83466797 24.54087891 11.58203125 23.37109375 C10.81246094 22.67113281 10.04289062 21.97117187 9.25 21.25 C8.24298272 20.25706687 7.24118994 19.25873312 6.25 18.25 C5.26 17.26 5.26 17.26 4.25 16.25 C3.755 15.755 3.755 15.755 3.25 15.25 C-0.03794803 14.79648993 -1.3762351 14.98267146 -4.109375 16.9375 C-4.89828125 17.700625 -5.6871875 18.46375 -6.5 19.25 C-7.35851562 20.06339844 -8.21703125 20.87679687 -9.1015625 21.71484375 C-9.97554687 22.55144531 -10.84953125 23.38804688 -11.75 24.25 C-13.45156766 25.77839927 -15.15940951 27.29985791 -16.875 28.8125 C-17.62007812 29.47378906 -18.36515625 30.13507813 -19.1328125 30.81640625 C-19.66648438 31.28949219 -20.20015625 31.76257813 -20.75 32.25 C-21.85865985 31.33877273 -22.96172219 30.42073341 -24.0625 29.5 C-24.67738281 28.98953125 -25.29226562 28.4790625 -25.92578125 27.953125 C-27.80932329 26.19461466 -29.26573656 24.35080364 -30.75 22.25 C-28.96427748 20.41052663 -27.17197551 18.57842259 -25.375 16.75 C-24.61316406 15.96302734 -24.61316406 15.96302734 -23.8359375 15.16015625 C-22.51167396 13.81846819 -21.13394135 12.53004185 -19.75 11.25 C-19.09 11.25 -18.43 11.25 -17.75 11.25 C-17.75 10.59 -17.75 9.93 -17.75 9.25 C-16.17945794 7.83303493 -14.54253336 6.48893184 -12.875 5.1875 C-11.97007813 4.47464844 -11.06515625 3.76179688 -10.1328125 3.02734375 C-6.51777328 0.33088007 -4.48577453 0.06695186 0 0 Z " fill="#F3F5F9" transform="translate(135.75,90.75)"/>
<path d="M0 0 C23.70594236 -0.60654863 46.13704081 5.79975794 65.7265625 19.15625 C66.52835938 19.69636719 67.33015625 20.23648438 68.15625 20.79296875 C80.78175861 29.97305468 90.84871123 41.77703922 98.7265625 55.15625 C99.47486328 56.41115234 99.47486328 56.41115234 100.23828125 57.69140625 C112.82814304 80.84563156 115.98235057 110.83539484 108.7265625 136.15625 C103.57039017 152.40153187 94.97656229 174.77163474 79.7265625 184.15625 C76.88108274 184.57266167 75.40325163 184.55292983 72.9140625 183.09375 C70.89303479 179.79628373 71.04962789 177.97169965 71.7265625 174.15625 C73.47698721 171.84044263 75.42985071 169.81898263 77.4375 167.72265625 C95.99864201 146.91263868 99.1816959 119.7588749 97.7265625 93.15625 C97.06750231 87.58068214 95.62704038 82.44292136 93.7265625 77.15625 C93.14841797 75.53589844 93.14841797 75.53589844 92.55859375 73.8828125 C88.84416825 64.33830168 83.71738254 56.06846725 77.2421875 48.1640625 C75.78372161 46.23197109 74.73114429 44.35254155 73.7265625 42.15625 C73.0665625 42.15625 72.4065625 42.15625 71.7265625 42.15625 C71.7265625 41.49625 71.7265625 40.83625 71.7265625 40.15625 C71.13617188 39.89070313 70.54578125 39.62515625 69.9375 39.3515625 C67.66940198 38.12534696 66.19304152 36.82273412 64.3515625 35.03125 C46.39771891 19.09804194 21.219935 12.92475354 -2.28173828 14.03515625 C-21.91913934 15.22909483 -39.87309737 22.05703526 -54.78564453 34.95581055 C-57.45407777 37.17319859 -59.04584555 38.13171913 -62.53515625 38.5078125 C-65.2734375 38.15625 -65.2734375 38.15625 -67.1484375 37.09375 C-68.92430499 34.03531155 -68.6143578 31.62474345 -68.2734375 28.15625 C-55.24361905 12.01523001 -28.05366399 2.80843745 -8.2109375 0.40625 C-5.47549108 0.22449276 -2.73848557 0.1307153 0 0 Z " fill="#F8F8FD" transform="translate(145.2734375,41.84375)"/>
<path d="M0 0 C2.47880078 2.36076265 3.16856021 3.59422822 4.5625 6.5625 C6.40354579 9.81461049 7.44682963 10.4386527 11.0625 11.68359375 C21.01332245 14.21938107 21.01332245 14.21938107 30.609375 12.40625 C31.19203125 11.9421875 31.7746875 11.478125 32.375 11 C37.01901289 7.86239436 41.15788002 7.63130391 46.625 8.5 C50.36899713 10.12782484 52.9716249 12.41331163 55.625 15.5 C56.3203125 18.26953125 56.3203125 18.26953125 56.75 21.3125 C57.87072951 26.44656817 59.21882245 28.58615872 63.5625 31.5625 C65.2408104 32.55733557 66.92792677 33.53752087 68.625 34.5 C69.20636719 35.056875 69.78773438 35.61375 70.38671875 36.1875 C74.47058437 38.58222748 79.29567992 37.56875234 83.89453125 37.29492188 C89.34055601 37.10915897 92.3324563 37.78681803 96.625 41.5 C99.92018467 47.32149292 100.44770377 52.24098024 98.81640625 58.703125 C98.55342143 63.91988514 100.37881751 66.5738167 103.3125 70.75 C103.80709717 71.46728271 104.30169434 72.18456543 104.8112793 72.92358398 C108.05837349 77.28140552 110.41619919 79.49006688 115.9375 80.5625 C116.92878906 80.69914062 117.92007812 80.83578125 118.94140625 80.9765625 C122.72298256 81.71416254 124.48084347 83.18515021 126.69140625 86.28125 C128.65332448 90.94388411 128.54431785 95.58821607 127.625 100.5 C126.47180613 102.69875631 125.13837885 104.58281729 123.68359375 106.58984375 C121.66193257 110.23778587 122.74296212 113.60686727 123.625 117.5 C123.78097656 118.510625 123.93695313 119.52125 124.09765625 120.5625 C125.08903149 126.49906933 125.08903149 126.49906933 128.49609375 131.234375 C130.57378647 132.52214479 130.57378647 132.52214479 132.6875 133.4375 C135.18449187 134.80681812 136.21986677 136.0185945 137.625 138.5 C138.48140012 143.57865189 138.84437324 149.0696341 136.48828125 153.765625 C134.09197565 156.65880236 131.83854298 158.38136501 128.53125 160.21875 C124.73042628 163.20219227 124.50566576 165.23091509 123.75 169.9375 C123.41355469 171.88462891 123.41355469 171.88462891 123.0703125 173.87109375 C122.5132537 178.18468682 122.5132537 178.18468682 122.625 182.5 C123.45 183.49 124.275 184.48 125.125 185.5 C128.46538235 189.82060851 128.18512926 194.1288369 128.19140625 199.4140625 C127.3566124 203.96224966 124.99471075 206.37200291 121.5 209.25 C117.32070689 211.06708396 113.14086348 211.24570866 108.625 211.5 C108.38136719 212.20253906 108.13773437 212.90507812 107.88671875 213.62890625 C105.96252324 218.00749355 103.03464899 221.62700882 100.20703125 225.46484375 C98.30269217 229.11835354 98.59877105 230.5918224 99.625 234.5 C100.14458795 239.93568934 99.71851022 243.80639829 96.625 248.5 C92.06330763 252.71956544 88.8668042 253.63982378 82.67578125 253.6171875 C80.625 253.5 80.625 253.5 77.5 252.75 C74.21474458 252.46432562 72.96065167 253.15048477 70.40234375 255.15234375 C68.625 256.5 68.625 256.5 66.12890625 257.94140625 C60.78413705 261.10696436 60.78413705 261.10696436 57.4921875 266.1875 C57.04313177 268.08695414 56.6232183 269.99356132 56.234375 271.90625 C55.24628456 276.11196828 53.97502876 277.7201889 50.625 280.5 C44.67364112 282.75323095 39.55169401 283.0566131 33.625 280.5 C32.4184375 279.4171875 32.4184375 279.4171875 31.1875 278.3125 C28.67171821 276.15375194 28.67171821 276.15375194 25.125 276.5625 C23.62200005 276.86023713 22.12238653 277.17520803 20.625 277.5 C19.55894531 277.6546875 18.49289063 277.809375 17.39453125 277.96875 C11.00654282 278.89773102 11.00654282 278.89773102 5.8203125 282.37109375 C4.63733145 284.37334429 3.63789924 286.40871234 2.625 288.5 C-0.98257567 291.88893472 -3.90363082 292.39100969 -8.75 292.75 C-13.47262054 292.42430203 -16.6621324 291.44726001 -19.859375 287.8125 C-23.375 283.07233146 -23.375 283.07233146 -23.375 280.5 C-26.43397731 279.7961526 -29.49756069 279.11487171 -32.5625 278.4375 C-33.85897461 278.13875977 -33.85897461 278.13875977 -35.18164062 277.83398438 C-41.29390656 276.41729797 -41.29390656 276.41729797 -47.375 277.5 C-48.1175 278.16 -48.86 278.82 -49.625 279.5 C-53.41093833 282.2534097 -56.75516004 282.58162261 -61.375 282.5 C-65.32812801 281.60495215 -68.58557548 280.48179862 -71.375 277.5 C-73.16517579 273.44013704 -74.26904248 269.47127726 -74.75 265.0625 C-74.95625 264.216875 -75.1625 263.37125 -75.375 262.5 C-77.03285779 261.81171969 -78.70174103 261.14994357 -80.375 260.5 C-83.4485142 258.42783019 -86.44129885 256.26421347 -89.4375 254.08203125 C-92.19965363 252.24403689 -92.19965363 252.24403689 -94.94140625 252.7421875 C-95.74449219 252.99226562 -96.54757813 253.24234375 -97.375 253.5 C-102.42672368 253.98835998 -106.22511798 254.08539448 -110.8125 251.75 C-114.87333887 248.18438538 -114.87333887 248.18438538 -116.375 245.5 C-116.40949403 242.73472829 -116.3184887 240.12163955 -116.125 237.375 C-115.80188881 229.04315748 -117.84969341 224.79435354 -123.375 218.5 C-124.13876953 217.19289062 -124.13876953 217.19289062 -124.91796875 215.859375 C-126.30619843 213.24507674 -126.30619843 213.24507674 -129.375 211.5 C-130.82246609 211.15846306 -132.28315665 210.87030827 -133.75 210.625 C-137.87149434 209.76719305 -140.38115486 208.58456772 -143.375 205.5 C-146.25578036 200.81745949 -146.02942788 195.82781285 -145.375 190.5 C-144.17468398 187.69745219 -142.54060286 185.66560286 -140.375 183.5 C-140.46473413 180.14532411 -140.96625178 176.82837834 -141.375 173.5 C-141.44074219 172.55511719 -141.50648438 171.61023438 -141.57421875 170.63671875 C-142.02363677 166.41685864 -142.36597867 163.5323513 -145.40234375 160.42578125 C-146.99177055 159.23821925 -148.60522688 158.0820713 -150.2421875 156.9609375 C-153.0442723 155.04156073 -154.27084674 153.73884956 -155.375 150.5 C-156.17454857 145.67986431 -156.50735688 141.43801135 -153.98046875 137.11328125 C-151.45949811 134.14194113 -149.3099958 131.93688792 -145.75 130.2734375 C-142.84400546 128.10350079 -142.47504185 126.29737044 -141.86914062 122.79296875 C-141.76794922 122.07753906 -141.66675781 121.36210938 -141.5625 120.625 C-141.44197266 119.91730469 -141.32144531 119.20960937 -141.19726562 118.48046875 C-140.60016676 114.81598771 -140.03972405 111.20815206 -140.375 107.5 C-142.24697454 104.80566683 -142.24697454 104.80566683 -144.375 102.5 C-146.33499724 98.58000551 -145.72835683 93.7836767 -145.375 89.5 C-144.0625 86.5 -144.0625 86.5 -142.375 84.5 C-141.76398438 83.73816406 -141.76398438 83.73816406 -141.140625 82.9609375 C-138.71751394 80.95597392 -136.50893916 80.70967445 -133.4375 80.125 C-128.66355029 79.04566917 -128.66355029 79.04566917 -124.8125 76.125 C-124.338125 75.25875 -123.86375 74.3925 -123.375 73.5 C-122.88 72.695625 -122.385 71.89125 -121.875 71.0625 C-121.38 70.216875 -120.885 69.37125 -120.375 68.5 C-119.6325 67.675 -118.89 66.85 -118.125 66 C-115.75538121 61.26076243 -116.62372581 57.79096367 -117.1875 52.62890625 C-117.45458821 48.17187169 -116.79213913 46.24266703 -114.375 42.5 C-109.55741642 37.53209063 -109.55741642 37.53209063 -104.6328125 37.3984375 C-103.25450855 37.55110091 -101.8769105 37.71024148 -100.5 37.875 C-91.47586427 38.3952032 -85.46809017 35.31513988 -78.51953125 29.7265625 C-74.57245709 26.07058367 -73.47893411 22.39465353 -72.80078125 17.11328125 C-72.15219856 13.1325306 -70.57450895 11.81964399 -67.375 9.5 C-63.02028413 8.04842804 -58.92186998 7.84747209 -54.375 8.5 C-52.39070685 9.62824621 -50.87330679 10.8197023 -49.23828125 12.40625 C-43.76232419 15.62064827 -34.77633556 13.09992455 -28.84765625 11.75390625 C-23.41729129 9.7931108 -21.93302557 6.38846879 -19.375 1.5 C-14.26156201 -3.32124154 -6.0766097 -2.70071542 0 0 Z M-18.375 5.5 C-18.91125 6.675625 -19.4475 7.85125 -20 9.0625 C-21.37545571 11.76717762 -22.13085189 12.40292034 -25.0078125 13.546875 C-28.11745583 14.31064704 -31.2253196 14.92586057 -34.375 15.5 C-35.8574508 15.88335061 -37.33726818 16.27724505 -38.8125 16.6875 C-44.60904255 18.00951848 -44.60904255 18.00951848 -47.375 17.5 C-49.42779996 15.89881603 -51.43151499 14.23223664 -53.375 12.5 C-57.5512385 11.1079205 -61.16085128 10.43376035 -65.28125 12.41796875 C-69.6182595 15.55127434 -70.70792877 18.14157928 -71.5625 23.375 C-72.35618632 27.42380491 -72.92947559 29.09149245 -76.0078125 31.9140625 C-79.06850522 33.92193709 -82.17318101 35.72792408 -85.375 37.5 C-86.94701172 38.60601562 -86.94701172 38.60601562 -88.55078125 39.734375 C-92.31408152 42.08708831 -94.10276223 41.38391126 -98.375 40.5 C-102.83326702 39.83918967 -106.44321776 40.00483289 -110.375 42.375 C-112.29079958 43.97668021 -112.29079958 43.97668021 -113.375 46.5 C-113.46150785 49.41531463 -113.42426341 52.16390859 -113.25 55.0625 C-112.64431415 65.14835203 -115.83320388 69.9752397 -122.375 77.5 C-122.84550781 78.24765625 -123.31601563 78.9953125 -123.80078125 79.765625 C-126.02867966 82.22018304 -128.02431403 82.31995678 -131.25 82.875 C-136.4832503 84.0143554 -136.4832503 84.0143554 -140.625 87.1875 C-142.74851382 91.20700831 -143.36514639 94.05318182 -142.375 98.5 C-140.87751293 101.15683189 -139.52847249 103.34652751 -137.375 105.5 C-137.10330011 113.67816657 -137.23016009 122.8229503 -140.375 130.5 C-142.80314926 133.0932473 -144.95054571 134.56294487 -148.09765625 136.17578125 C-150.71846199 137.69971461 -151.39244249 138.67109815 -152.375 141.5 C-152.83278685 146.53565533 -152.4204675 149.43937667 -149.375 153.5 C-147.6115083 155.58412655 -146.27266195 156.55241705 -143.8125 157.8125 C-140.53754198 160.07977863 -140.28727922 161.64035715 -139.375 165.5 C-139.09849609 166.63695312 -139.09849609 166.63695312 -138.81640625 167.796875 C-135.68043244 181.7249242 -135.68043244 181.7249242 -138.49609375 186.3359375 C-139.4080091 187.47776918 -140.3246149 188.61587218 -141.24609375 189.75 C-143.39732281 193.08477723 -142.92904067 195.62171532 -142.375 199.5 C-140.35997111 203.25212276 -138.92033858 205.13644095 -135.375 207.5 C-132.28637109 207.99570587 -129.20122955 208.32396423 -126.08984375 208.64453125 C-125.19394531 208.92683594 -124.29804687 209.20914063 -123.375 209.5 C-122.26171875 211.74609375 -122.26171875 211.74609375 -121.375 214.5 C-120.01356348 216.26057252 -118.6372634 218.00970541 -117.25 219.75 C-113.0376045 225.82368654 -112.6822958 230.41705366 -113.40771484 237.53613281 C-113.74356577 241.54564726 -113.52220411 243.85845426 -111.01171875 246.9453125 C-107.71481627 250.15114303 -107.71481627 250.15114303 -103.3125 250.625 C-99.66287639 250.6607328 -99.66287639 250.6607328 -97.37109375 249.95703125 C-93.0978092 248.91035198 -91.03177164 249.14119364 -87.0859375 251.296875 C-83.72122761 253.54112039 -80.54174578 255.98547258 -77.375 258.5 C-76.45203125 259.14710938 -75.5290625 259.79421875 -74.578125 260.4609375 C-71.92831022 262.91342565 -71.53637452 264.43124246 -70.875 267.9375 C-69.68812795 272.78875841 -68.82033778 275.75713201 -64.375 278.5 C-60.21676496 279.34011879 -56.19509836 279.62672756 -52.48828125 277.33203125 C-51.65876953 276.64173828 -51.65876953 276.64173828 -50.8125 275.9375 C-47.8766772 273.5440925 -47.51204855 273.5 -43.375 273.5 C-41.70320743 273.80659172 -40.03715215 274.14483929 -38.375 274.5 C-36.49167969 274.82097656 -36.49167969 274.82097656 -34.5703125 275.1484375 C-22.78919532 277.232789 -22.78919532 277.232789 -20.375 280.5 C-19.75625 281.49 -19.1375 282.48 -18.5 283.5 C-16.24148017 286.68849858 -15.00431106 288.09776618 -11.375 289.5 C-6.51009936 289.5 -4.43538016 289.34348422 -0.625 286.3125 C1.70566793 283.53612735 1.70566793 283.53612735 3.5 280.3125 C6.17465778 276.77251176 8.45909535 276.21984382 12.625 275.5 C13.511875 275.31695312 14.39875 275.13390625 15.3125 274.9453125 C25.72568245 272.87965403 25.72568245 272.87965403 29.625 273.5 C30.73549434 274.29677969 31.81663414 275.1351779 32.875 276 C36.57751531 278.87334891 39.62667516 279.25360551 44.25390625 278.96484375 C47.16512976 278.39410965 49.39101401 277.39722199 51.54296875 275.31640625 C52.96387987 272.93112224 53.12354686 270.87492689 53.4375 268.125 C54.05804702 263.50192468 54.98223927 261.55588288 58.6875 258.6875 C60.32661834 257.61466977 61.97248376 256.5520759 63.625 255.5 C64.30691406 254.90832031 64.98882812 254.31664062 65.69140625 253.70703125 C69.8980254 250.21881006 72.7789231 249.20751003 78.31005859 249.59765625 C80.23725965 249.80442739 82.1564052 250.08247989 84.07421875 250.36328125 C88.20620085 250.52237847 90.18075517 249.72535642 93.625 247.5 C96.33167297 243.43999054 97.06540699 240.34447688 96.625 235.5 C96.295 234.84 95.965 234.18 95.625 233.5 C94.88777603 227.05730357 96.78349699 223.78415731 100.375 218.75 C100.8184375 218.09128906 101.261875 217.43257812 101.71875 216.75390625 C106.90423987 209.23494594 106.90423987 209.23494594 111.80859375 207.91015625 C112.55238281 207.79542969 113.29617188 207.68070313 114.0625 207.5625 C118.16293703 206.75862519 120.61308301 205.51191699 123.625 202.5 C125.47212393 198.80575215 125.10757943 194.53207815 124.625 190.5 C122.85502588 187.51211967 122.85502588 187.51211967 120.625 185.5 C117.68005129 179.61010258 120.52090159 168.84737272 121.90234375 162.5234375 C123.37865243 158.38977321 126.68599055 157.0240983 130.3125 155 C132.9342295 153.2994187 133.47216245 152.34638651 134.625 149.5 C135.27198574 145.75429308 135.4219399 142.1178222 133.71484375 138.65234375 C131.5686521 135.84366207 130.06610585 134.59038122 126.59375 133.87890625 C123.625 132.5 123.625 132.5 122.76611328 130.78637695 C122.12017572 128.49259137 121.65939555 126.22245152 121.25 123.875 C121.00443359 122.70130859 121.00443359 122.70130859 120.75390625 121.50390625 C118.31603424 109.15065566 118.31603424 109.15065566 120.71875 104.28515625 C121.1828125 103.71667969 121.646875 103.14820312 122.125 102.5625 C124.63514832 98.89104742 125.52269176 96.07144155 125.22265625 91.609375 C124.28451135 88.29827537 122.59150991 86.71162285 119.8828125 84.671875 C117.31228942 83.33769347 115.03000778 82.89757803 112.1875 82.375 C106.91677265 81.18600511 105.08407398 79.09358318 102.125 74.625 C100.92787279 72.6010434 99.75925479 70.5598495 98.625 68.5 C98.06296875 67.62472656 97.5009375 66.74945313 96.921875 65.84765625 C95.14584501 62.63261402 95.35244774 60.11131748 95.625 56.5 C95.955 55.84 96.285 55.18 96.625 54.5 C97.06908691 50.5920352 96.76204844 48.75451854 94.875 45.25 C92.63693278 42.51458451 91.87086355 41.59818384 88.625 40.5 C86.76146038 40.60056546 84.89737934 40.70863661 83.03955078 40.88574219 C73.10733882 41.69680935 66.47434051 38.92294158 58.76171875 32.72265625 C54.82149312 29.07396948 53.86089539 25.43716719 53.1640625 20.18359375 C52.39428586 16.35144483 50.7116557 14.64751848 47.57421875 12.4375 C44.13503033 10.78338132 41.22549083 10.44929914 37.625 11.5 C35.35320119 12.88496035 35.35320119 12.88496035 33.125 14.5625 C29.04757937 17.49271415 29.04757937 17.49271415 25 17.5625 C23.54119676 17.21027387 22.08295683 16.85571338 20.625 16.5 C19.44035156 16.3659375 18.25570312 16.231875 17.03515625 16.09375 C6.99711046 14.85411557 6.99711046 14.85411557 3.2421875 11.1484375 C1.4375 8.4375 1.4375 8.4375 0.01953125 5.77734375 C-1.56068311 3.1967696 -2.55480819 2.49058561 -5.375 1.5 C-11.06167346 0.86814739 -14.04665015 1.74876347 -18.375 5.5 Z " fill="#3A44B7" transform="translate(159.375,4.5)"/>
<path d="M0 0 C3.375 0.875 3.375 0.875 5.375 2.875 C5.69370548 6.77914211 5.36444778 10.14428779 4.37890625 13.8984375 C-0.867691 36.90690361 5.0795942 61.12429934 16.2890625 81.32421875 C29.21081648 101.66401669 49.54141148 117.30873904 73.05859375 123.16796875 C74.15300781 123.40128906 75.24742188 123.63460937 76.375 123.875 C77.41785156 124.09800781 78.46070313 124.32101563 79.53515625 124.55078125 C91.25003815 126.68471884 103.28299282 126.81832978 114.93359375 124.328125 C118.8356988 123.6038943 122.41497762 123.62357001 126.375 123.875 C128.375 125.875 128.375 125.875 128.6875 129.3125 C128.375 132.875 128.375 132.875 127.26171875 134.4921875 C116.13429165 142.64769308 92.40715609 140.00939707 79.64160156 138.56591797 C74.42179936 137.76041834 69.39852816 136.49489233 64.375 134.875 C63.40264404 134.56151611 63.40264404 134.56151611 62.41064453 134.24169922 C36.50765485 125.52905341 13.61974463 106.34297851 1.35400391 81.83496094 C-9.24111943 59.45413363 -13.35980669 36.04328227 -9.375 11.4375 C-9.26591309 10.73351074 -9.15682617 10.02952148 -9.04443359 9.30419922 C-7.95357081 3.48388153 -6.30431771 -0.21739027 0 0 Z " fill="#F9F9FD" transform="translate(52.625,118.125)"/>
</svg>
